<?xml version="1.0" standalone="no"?>
<!DOCTYPE svg PUBLIC "-//W3C//DTD SVG 20010904//EN"
 "http://www.w3.org/TR/2001/REC-SVG-20010904/DTD/svg10.dtd">
<svg version="1.0" xmlns="http://www.w3.org/2000/svg"
 width="964.000000pt" height="964.000000pt" viewBox="0 0 964.000000 964.000000"
 preserveAspectRatio="xMidYMid meet">
<metadata>
Created by potrace 1.14, written by Peter Selinger 2001-2017
</metadata>
<g transform="translate(0.000000,964.000000) scale(0.100000,-0.100000)"
fill="#000000" stroke="none">
<path d="M3170 8196 c-25 -7 -72 -27 -106 -44 -66 -33 -214 -140 -214 -154 0
-5 -5 -6 -10 -3 -6 4 -9 3 -8 -2 2 -4 -31 -44 -73 -88 -42 -44 -96 -102 -120
-128 -44 -50 -87 -77 -149 -95 -55 -16 -361 -124 -510 -180 -188 -71 -434
-182 -565 -254 -60 -34 -119 -67 -130 -73 -43 -24 -174 -113 -251 -172 -45
-34 -85 -59 -89 -55 -4 4 -5 3 -4 -3 2 -5 -45 -57 -105 -115 -226 -219 -330
-410 -329 -605 0 -120 25 -187 94 -249 114 -103 302 -131 542 -81 108 22 268
80 336 122 149 92 184 127 200 203 26 121 10 133 -74 55 -144 -132 -496 -297
-692 -323 -53 -8 -87 -7 -125 2 -189 44 -217 169 -88 382 60 99 110 161 214
266 197 199 410 348 716 499 122 60 223 109 224 109 2 0 57 25 122 56 128 60
404 174 422 174 6 0 -9 -45 -33 -99 -136 -306 -250 -777 -300 -1238 -8 -74
-16 -83 -140 -148 -125 -66 -136 -75 -152 -112 -14 -34 -5 -73 17 -73 5 0 55
22 112 50 125 61 129 58 97 -73 -169 -698 -422 -1322 -614 -1512 -228 -226
-511 -129 -556 189 -29 214 56 434 274 704 64 78 80 112 56 112 -20 0 -149
-69 -202 -108 -83 -62 -175 -163 -234 -257 -132 -209 -156 -457 -60 -625 33
-58 135 -165 168 -175 11 -4 16 -11 13 -18 -4 -7 -4 -9 0 -5 4 3 40 -9 79 -28
342 -161 672 63 960 651 105 212 256 629 306 840 5 22 23 96 40 163 18 68 39
165 48 215 23 136 30 149 96 174 l55 20 7 -80 c5 -66 11 -84 31 -104 44 -43
59 -10 89 185 20 133 20 172 -1 172 -8 0 -43 -14 -77 -31 -83 -42 -135 -60
-142 -49 -6 9 44 394 76 585 55 331 129 573 233 759 40 72 41 73 116 112 30
16 87 49 125 74 39 25 81 51 95 58 50 25 165 117 235 188 78 80 131 169 121
207 -11 45 -77 58 -166 33z m10 -125 c0 -11 -20 -37 -44 -58 -42 -37 -167
-115 -183 -115 -4 0 -15 -5 -23 -12 -8 -7 -23 -16 -32 -19 -74 -26 92 135 191
186 84 43 91 44 91 18z"/>
<path d="M6729 8142 c-123 -35 -229 -109 -229 -162 0 -8 29 -50 65 -93 35 -42
76 -97 91 -122 l26 -45 -51 -48 -51 -48 0 -71 c0 -62 3 -75 30 -111 l30 -42
-41 0 c-36 0 -48 -6 -82 -42 -44 -46 -67 -93 -67 -137 0 -16 16 -71 35 -122
20 -51 42 -133 51 -183 16 -97 37 -148 85 -208 75 -95 98 -201 60 -283 -25
-56 -36 -62 -121 -67 -83 -5 -125 -23 -220 -94 -105 -78 -159 -160 -160 -242
0 -38 -4 -45 -32 -60 -56 -29 -164 -140 -197 -201 -30 -56 -61 -162 -61 -209
0 -13 13 -35 29 -50 32 -29 38 -69 26 -182 -7 -64 0 -74 65 -109 80 -43 81
-45 79 -142 -1 -48 1 -92 5 -98 4 -6 20 -11 36 -11 33 0 35 -4 60 -128 21
-103 52 -165 104 -209 25 -21 36 -39 41 -73 4 -25 16 -61 26 -81 20 -40 94
-109 116 -109 8 0 12 -4 9 -9 -3 -4 7 -6 21 -3 27 5 27 5 12 -19 -39 -60 -99
-168 -99 -178 0 -46 142 50 186 125 21 36 31 44 48 40 11 -3 51 -8 87 -12 59
-6 72 -4 138 26 67 29 74 30 90 16 10 -9 26 -42 36 -74 27 -89 62 -160 85
-172 26 -14 35 5 20 44 -15 40 -13 238 3 258 7 10 36 18 75 22 66 6 119 29
192 81 63 46 164 95 240 117 74 21 202 25 348 9 120 -13 173 -4 313 55 l114
47 140 1 c158 2 168 5 267 86 72 57 213 134 230 124 7 -4 10 -4 6 1 -4 4 18
24 48 45 83 56 134 137 134 214 0 43 -28 113 -68 170 l-34 49 20 26 c48 66 64
111 58 170 -8 80 -10 91 -15 86 -2 -3 -22 12 -44 31 -22 20 -59 45 -83 55 -72
32 -478 269 -495 289 -13 15 -15 36 -11 118 3 71 1 105 -9 123 -7 13 -12 27
-11 32 1 4 -4 6 -10 5 -7 -2 -26 25 -43 59 -79 163 -235 236 -505 237 -130 0
-139 -1 -242 -36 -190 -66 -323 -141 -477 -270 -52 -43 -98 -75 -102 -71 -4 4
-22 51 -40 103 -32 96 -41 181 -22 214 8 14 16 10 60 -34 56 -56 107 -78 131
-57 9 6 24 31 34 54 17 39 17 47 4 112 -8 39 -32 101 -54 143 -22 40 -43 93
-47 118 -12 86 -37 155 -70 195 -30 37 -51 50 -172 101 -18 8 -33 21 -33 30 0
13 6 14 33 8 57 -14 91 -11 95 9 2 10 -3 17 -12 17 -9 0 -16 -4 -16 -9 0 -5
-30 2 -66 16 -75 29 -84 25 -84 -39 0 -49 24 -70 112 -99 115 -37 148 -77 172
-212 8 -43 32 -110 59 -167 57 -118 70 -197 39 -228 -27 -27 -53 -19 -101 30
-53 53 -94 136 -121 243 -24 94 -57 172 -68 160 -4 -3 -7 -20 -8 -36 -4 -82
-195 -274 -243 -244 -17 10 -59 162 -78 283 -9 61 -21 112 -25 112 -4 0 -8
-37 -8 -83 0 -64 7 -107 34 -197 19 -63 32 -117 30 -119 -6 -7 -72 72 -83 99
-5 14 -19 73 -30 132 -12 58 -34 140 -51 181 -16 42 -30 84 -30 95 0 37 23 87
56 120 38 37 69 41 164 16 71 -18 106 -13 115 16 5 15 12 19 27 15 52 -17 88
21 88 95 0 39 2 41 62 71 34 17 70 41 79 53 23 27 24 83 2 110 -10 12 4 1 30
-24 54 -51 60 -80 25 -141 -17 -30 -26 -38 -41 -33 -23 7 -87 -4 -87 -15 0 -4
17 -13 37 -19 31 -10 38 -9 49 6 12 15 12 15 7 -5 -3 -12 2 -32 10 -44 9 -11
13 -28 10 -35 -3 -8 0 -14 5 -14 20 0 23 20 10 56 -12 34 -11 39 20 95 20 35
35 81 39 112 8 63 23 76 86 77 74 0 141 -34 107 -55 -24 -15 -7 -25 38 -24 26
1 57 -1 70 -5 34 -11 61 1 55 24 -4 16 0 20 20 20 14 0 36 -4 49 -9 51 -18 78
-22 78 -9 0 16 -6 20 -142 91 -132 70 -194 86 -319 79 -82 -4 -104 -1 -177 22
-46 14 -101 26 -122 26 -29 0 -42 5 -50 20 -6 11 -13 76 -17 145 -7 146 5 138
-144 97z m732 -381 c49 -15 64 -33 49 -61 -6 -11 -8 -25 -5 -30 11 -17 -5 -11
-79 29 -67 37 -98 47 -172 55 -38 4 -60 16 -46 25 15 9 211 -5 253 -18z m-746
-167 c-39 -20 -65 -44 -65 -60 0 -7 -5 -16 -11 -20 -16 -10 -1 36 20 60 17 20
47 34 71 35 8 1 2 -6 -15 -15z"/>
<path d="M6252 7796 c-42 -40 -44 -87 -5 -128 39 -40 92 -39 127 3 15 17 26
43 26 59 0 38 -37 79 -80 89 -31 7 -39 4 -68 -23z m108 -18 c42 -46 14 -118
-46 -118 -42 0 -74 30 -74 70 0 61 78 93 120 48z"/>
<path d="M6270 7731 c0 -28 5 -51 10 -51 6 0 10 9 10 20 0 11 6 20 13 20 7 0
18 -9 25 -20 7 -11 17 -20 23 -20 6 0 7 6 2 12 -4 7 -7 29 -8 48 0 33 -2 35
-37 38 l-38 3 0 -50z m60 19 c0 -5 -9 -10 -20 -10 -11 0 -20 5 -20 10 0 6 9
10 20 10 11 0 20 -4 20 -10z"/>
<path d="M5903 7650 c-30 -12 -42 -33 -111 -190 -33 -74 -76 -169 -95 -211
-19 -42 -50 -110 -67 -150 -18 -41 -47 -105 -65 -144 -17 -38 -40 -90 -51
-114 -46 -107 -71 -147 -104 -169 -43 -29 -53 -46 -44 -74 6 -20 10 -21 131
-14 68 4 135 12 148 18 40 18 40 40 1 73 -20 17 -36 37 -36 45 1 8 15 42 33
75 38 71 47 74 223 74 127 1 141 -5 155 -67 13 -58 0 -80 -53 -88 -50 -8 -79
-34 -71 -64 3 -12 11 -23 17 -26 28 -10 472 -21 489 -12 12 6 17 18 15 36 -2
21 -10 28 -40 35 -20 5 -43 16 -50 25 -8 9 -42 161 -77 337 -34 176 -71 361
-81 410 -10 50 -22 109 -25 133 -10 61 -31 72 -135 71 -47 0 -95 -4 -107 -9z
m54 -458 c14 -99 23 -188 20 -196 -5 -13 -26 -16 -117 -16 -80 0 -112 3 -116
13 -2 7 21 73 51 147 31 74 64 153 72 175 20 49 44 78 55 67 5 -5 20 -90 35
-190z"/>
<path d="M7713 7648 c-25 -7 -31 -13 -28 -30 8 -39 48 -49 68 -16 7 10 7 23 1
36 -7 16 -14 17 -41 10z"/>
<path d="M5325 7615 c-189 -28 -379 -63 -427 -77 -34 -10 -38 -15 -47 -62 -36
-177 -34 -226 9 -226 29 0 56 35 82 108 30 85 64 122 112 122 49 0 53 -15 33
-119 -9 -47 -33 -174 -52 -281 -51 -281 -75 -401 -86 -438 -8 -25 -22 -38 -64
-58 -56 -26 -75 -54 -55 -79 17 -20 66 -19 198 5 61 11 146 25 189 31 77 10
123 35 123 64 0 21 -34 43 -70 47 l-35 3 3 50 c6 114 149 835 166 835 1 0 16
4 33 9 46 13 70 -10 83 -79 6 -30 19 -63 29 -74 45 -44 80 19 83 151 l3 88
-80 2 c-44 0 -147 -9 -230 -22z"/>
<path d="M7380 7615 c-16 -20 -6 -45 19 -45 20 0 37 32 26 50 -9 15 -31 12
-45 -5z"/>
<path d="M7730 7535 c-24 -29 8 -75 44 -62 21 8 22 63 0 71 -23 9 -30 8 -44
-9z"/>
<path d="M7351 7511 c-14 -26 8 -54 40 -49 16 2 25 10 27 27 6 40 -48 58 -67
22z"/>
<path d="M4730 7485 c-39 -40 -63 -43 -179 -23 -171 29 -342 -57 -419 -212
-22 -45 -27 -68 -26 -130 1 -124 53 -210 187 -307 131 -94 192 -186 185 -279
-7 -85 -60 -136 -148 -142 -106 -8 -184 56 -215 174 -9 38 -19 75 -21 82 -5
18 -32 26 -48 13 -19 -16 -33 -74 -60 -241 -14 -92 -20 -151 -14 -162 14 -28
46 -21 81 16 43 44 55 47 124 29 90 -23 223 -14 293 21 88 44 151 110 191 202
29 65 38 223 17 274 -23 53 -98 131 -213 219 -113 88 -150 136 -149 193 2 45
40 112 61 104 8 -3 11 -2 8 4 -3 5 12 14 34 20 62 16 172 -14 154 -43 -3 -6
-1 -7 5 -3 20 12 60 -45 82 -119 40 -130 47 -138 73 -82 16 33 77 334 77 378
0 26 -16 49 -35 49 -6 0 -26 -16 -45 -35z"/>
<path d="M7737 7419 c-32 -19 -14 -69 25 -69 18 0 40 37 31 52 -10 17 -39 26
-56 17z"/>
<path d="M7394 7396 c-11 -29 1 -51 28 -54 22 -3 29 2 34 22 3 14 3 30 -1 35
-9 16 -55 13 -61 -3z"/>
<path d="M7030 7360 c-12 -7 -11 -12 5 -30 25 -28 57 -22 66 13 7 25 5 27 -24
27 -18 0 -39 -4 -47 -10z"/>
<path d="M7517 7337 c-22 -27 -21 -30 4 -53 15 -14 24 -16 37 -8 24 16 27 53
5 61 -10 4 -20 10 -23 14 -3 4 -13 -2 -23 -14z"/>
<path d="M7638 7339 c-33 -19 -15 -69 24 -69 9 0 22 9 28 21 9 16 8 25 -6 40
-20 22 -22 22 -46 8z"/>
<path d="M3705 7181 c-324 -124 -353 -136 -377 -158 -39 -35 -11 -68 52 -61
19 2 26 -2 28 -20 3 -20 -44 -309 -68 -417 -5 -22 -23 -121 -41 -220 -37 -215
-49 -248 -94 -269 -48 -23 -95 -65 -95 -85 0 -47 50 -53 130 -15 84 39 342
143 460 184 164 57 152 44 190 219 22 105 26 176 9 187 -29 18 -102 -91 -133
-198 -19 -68 -61 -108 -140 -132 -61 -20 -90 -13 -82 18 2 11 19 100 36 196
25 142 34 178 51 193 36 30 56 21 92 -40 37 -64 61 -77 77 -41 10 24 70 363
70 398 0 37 -37 22 -89 -37 -28 -31 -56 -72 -62 -90 -10 -32 -45 -53 -67 -39
-6 3 0 62 15 143 29 167 28 165 56 191 30 28 168 72 185 59 7 -6 12 -34 12
-73 0 -51 4 -68 20 -84 27 -27 58 -26 69 3 17 47 42 204 39 247 -3 42 -5 45
-33 46 -17 1 -151 -44 -310 -105z"/>
<path d="M3109 6946 c-64 -31 -133 -62 -264 -121 -79 -35 -97 -54 -81 -86 7
-14 21 -24 34 -24 37 -1 42 -15 27 -90 -8 -38 -30 -158 -50 -265 -84 -466 -96
-523 -109 -542 -8 -11 -28 -29 -45 -39 -40 -24 -65 -72 -51 -99 6 -11 17 -20
24 -20 16 0 136 51 231 98 33 16 89 42 125 57 36 16 73 35 82 43 9 8 20 12 25
9 4 -3 9 13 11 34 3 46 -15 58 -59 42 -16 -6 -31 -7 -36 -2 -6 6 -2 51 9 112
10 56 29 165 43 242 13 77 31 178 40 225 8 47 22 128 31 180 19 111 41 153 95
180 44 23 72 60 63 84 -10 26 -71 19 -145 -18z"/>
<path d="M4134 4375 c-4 -9 -2 -21 4 -27 15 -15 44 -1 40 19 -4 23 -36 29 -44
8z"/>
<path d="M2365 4257 c-33 -67 -66 -121 -72 -120 -7 2 -10 -4 -7 -12 4 -8 1
-15 -5 -15 -6 0 -11 -4 -11 -8 0 -4 18 -8 40 -7 42 0 47 4 29 22 -8 8 -5 24 9
57 21 46 21 46 70 46 48 0 49 -1 72 -47 17 -34 20 -50 13 -62 -9 -15 -5 -16
36 -14 25 1 48 2 49 2 2 1 -7 14 -20 30 -12 15 -48 78 -78 139 -30 61 -57 111
-60 111 -3 1 -32 -54 -65 -122z m75 23 l20 -40 -39 0 -39 0 15 40 c9 22 18 40
19 40 2 0 13 -18 24 -40z"/>
<path d="M3075 4259 c-33 -66 -68 -128 -77 -136 -26 -24 -22 -29 22 -28 42 0
47 4 29 22 -8 8 -7 23 6 57 l18 46 52 0 52 0 20 -48 c12 -29 17 -55 13 -63 -7
-12 0 -14 36 -14 24 0 44 1 44 2 0 1 -27 50 -60 110 -33 59 -66 123 -72 141
-7 17 -15 32 -18 32 -3 0 -33 -54 -65 -121z m57 -17 c-19 -2 -36 -1 -38 1 -3
3 3 21 12 41 l18 36 21 -38 21 -37 -34 -3z"/>
<path d="M5111 4349 c15 -29 8 -231 -8 -237 -28 -9 -10 -17 37 -17 28 0 50 1
50 3 0 2 -7 10 -15 18 -19 20 -22 223 -3 242 9 9 3 12 -30 12 -40 0 -42 -1
-31 -21z"/>
<path d="M4310 4319 c-48 -10 -90 -59 -90 -105 0 -94 88 -151 169 -109 26 13
47 42 37 52 -2 2 -15 -7 -29 -21 -51 -51 -119 -24 -132 54 -7 42 15 109 37
111 7 0 22 2 33 4 25 5 65 -20 65 -40 0 -8 4 -15 9 -15 11 0 22 43 13 51 -15
15 -79 25 -112 18z"/>
<path d="M4505 4316 c-31 -9 -39 -16 -37 -32 5 -28 7 -28 35 0 31 31 70 33 97
6 33 -33 25 -46 -42 -58 -64 -12 -108 -42 -108 -73 0 -53 82 -85 141 -55 18 9
35 12 38 7 9 -13 51 -24 51 -12 0 5 -4 13 -10 16 -5 3 -10 39 -10 78 0 86 -14
112 -68 127 -43 12 -36 12 -87 -4z m115 -129 c0 -42 -31 -77 -68 -77 -36 0
-52 17 -52 52 0 23 7 32 33 43 17 8 44 14 60 15 24 0 27 -4 27 -33z"/>
<path d="M5790 4303 c-24 -19 -30 -21 -30 -9 0 9 -8 16 -18 16 -25 0 -34 -11
-21 -26 11 -14 8 -148 -4 -174 -6 -12 1 -15 33 -15 42 -1 48 3 28 23 -19 19
-15 125 6 156 12 20 25 26 52 26 31 0 37 -4 50 -35 19 -47 18 -129 -2 -149 -8
-9 -14 -16 -12 -17 2 0 22 -1 46 -3 43 -2 50 2 31 21 -6 6 -13 44 -16 85 -3
41 -11 82 -18 91 -6 9 -31 20 -54 26 -37 8 -45 6 -71 -16z"/>
<path d="M2670 4300 c-16 -16 -20 -17 -20 -5 0 9 -10 15 -26 15 -21 0 -25 -3
-19 -17 8 -19 7 -166 -1 -186 -4 -10 29 -14 69 -8 4 0 0 12 -9 26 -20 31 -14
113 11 151 20 31 79 34 95 5 13 -25 13 -158 0 -166 -20 -13 -9 -20 30 -20 33
0 39 3 33 15 -3 8 -9 50 -12 93 -5 67 -10 82 -30 98 -32 26 -95 25 -121 -1z"/>
<path d="M3330 4313 c-12 -3 -14 -20 -11 -94 2 -58 -1 -95 -8 -102 -18 -18
-13 -23 29 -22 39 0 50 8 30 20 -16 10 -12 122 6 156 13 26 20 30 52 27 48 -4
64 -33 59 -113 -2 -33 -6 -67 -10 -75 -6 -12 1 -15 32 -15 34 -1 38 1 30 16
-16 31 -11 156 7 174 25 24 76 16 92 -15 13 -25 12 -131 -1 -160 -6 -12 1 -15
32 -15 32 -1 38 2 32 15 -5 8 -11 49 -15 90 -5 56 -12 80 -28 97 -28 30 -85
31 -121 3 -23 -19 -27 -19 -35 -4 -5 10 -27 18 -54 21 -37 4 -50 1 -67 -16
-15 -15 -21 -17 -21 -7 0 18 -10 24 -30 19z"/>
<path d="M3785 4311 c-40 -17 -59 -49 -59 -102 0 -66 39 -109 108 -116 42 -5
48 -3 81 30 19 19 35 42 35 51 0 26 -15 18 -27 -15 -9 -22 -17 -30 -27 -26 -9
4 -15 1 -13 -6 1 -7 -11 -13 -29 -15 -44 -4 -74 24 -81 76 l-6 42 92 0 c50 0
91 3 91 6 0 11 -23 49 -39 64 -18 18 -95 24 -126 11z m103 -28 c21 -29 14 -33
-53 -33 -62 0 -65 1 -55 20 22 42 80 49 108 13z"/>
<path d="M3973 4308 c-3 -6 0 -13 6 -17 14 -9 13 -168 0 -177 -24 -15 17 -23
71 -15 2 1 -1 6 -8 13 -7 7 -12 39 -12 73 0 51 4 65 22 81 12 10 18 14 15 7
-5 -7 0 -9 13 -6 11 3 20 9 20 13 0 5 3 15 6 24 9 25 -20 20 -54 -9 -26 -22
-29 -23 -25 -6 3 14 -2 20 -21 23 -15 3 -29 1 -33 -4z"/>
<path d="M4770 4300 c-16 -16 -20 -17 -20 -5 0 9 -10 15 -26 15 -21 0 -25 -3
-18 -17 16 -36 16 -132 0 -164 -9 -18 -16 -33 -16 -34 0 0 18 -1 40 0 35 0 39
2 32 20 -14 38 -8 130 11 158 22 34 80 39 97 8 14 -28 13 -171 -2 -171 -27 0
5 -13 37 -15 30 -2 35 1 29 14 -4 9 -10 51 -13 94 -5 67 -10 82 -30 98 -32 26
-95 25 -121 -1z"/>
<path d="M5245 4287 c-27 -27 -35 -43 -35 -71 0 -96 88 -154 169 -111 25 12
41 33 41 52 0 2 -14 -7 -31 -21 -73 -62 -153 1 -133 103 14 67 89 87 130 36
22 -28 22 -28 29 -5 10 32 -7 43 -75 48 -57 4 -61 3 -95 -31z"/>
<path d="M5498 4302 c-43 -26 -63 -76 -49 -122 17 -59 53 -85 116 -85 45 0 58
4 83 28 35 34 45 71 31 121 -19 67 -117 99 -181 58z m120 -16 c8 -7 16 -32 19
-54 10 -78 -15 -122 -71 -122 -43 0 -67 28 -74 85 -8 75 29 121 88 109 14 -3
31 -11 38 -18z"/>
<path d="M4120 4302 c0 -4 5 -13 11 -19 11 -11 8 -132 -5 -168 -6 -18 -3 -20
33 -20 44 0 48 4 29 23 -8 8 -13 44 -13 102 l0 90 -27 0 c-16 0 -28 -4 -28 -8z"/>
<path d="M7174 4208 c-5 -8 3 -12 19 -9 4 0 7 -17 7 -38 0 -22 5 -43 10 -46 6
-4 10 10 10 33 0 26 5 42 15 46 8 3 15 10 15 15 0 12 -69 11 -76 -1z"/>
<path d="M7260 4165 c0 -55 19 -80 21 -27 1 25 1 26 7 4 9 -31 21 -32 38 -2
14 24 14 24 12 3 -2 -12 1 -23 6 -25 11 -4 16 76 6 93 -5 8 -15 -1 -28 -27
l-20 -38 -6 31 c-4 17 -14 34 -22 37 -11 4 -14 -6 -14 -49z"/>
<path d="M968 2879 c-269 -28 -486 -175 -621 -421 -79 -145 -99 -226 -101
-403 0 -118 3 -153 23 -225 32 -115 86 -229 156 -325 32 -44 56 -82 54 -85 -1
-3 28 -31 67 -63 79 -67 219 -139 314 -163 138 -35 323 -34 431 1 39 13 51 13
85 2 117 -41 336 -46 459 -11 77 22 93 22 195 -6 110 -30 272 -33 377 -6 70
18 72 17 158 -4 128 -32 279 -31 419 4 86 22 113 25 139 17 72 -23 208 -32
306 -21 53 7 99 14 103 16 3 2 26 -4 50 -15 24 -10 88 -29 142 -41 157 -37
363 -19 510 43 36 16 42 16 95 0 41 -13 91 -18 191 -18 140 0 205 11 294 48
47 20 51 20 130 4 87 -18 233 -22 306 -7 37 7 57 5 114 -16 168 -60 416 -64
555 -8 34 13 44 13 122 -6 114 -27 274 -27 389 0 l84 21 91 -22 c126 -29 299
-29 410 2 94 26 114 27 220 6 130 -26 319 -16 418 22 16 6 33 8 39 5 28 -18
164 -45 248 -50 110 -7 211 6 316 41 l73 24 82 -20 c116 -30 308 -23 424 15
283 91 510 342 571 629 20 98 18 285 -5 372 -85 320 -292 540 -601 637 -66 20
-94 23 -230 22 -130 0 -165 -4 -217 -21 -62 -21 -64 -21 -121 -3 -142 44 -335
46 -481 3 -49 -14 -59 -14 -110 1 -169 48 -343 48 -493 0 -43 -14 -53 -14 -95
0 -133 42 -318 45 -463 8 -55 -15 -81 -17 -100 -10 -40 16 -190 38 -255 38
-65 0 -200 -22 -253 -41 -27 -9 -44 -8 -90 4 -110 31 -225 40 -333 27 -55 -6
-117 -17 -137 -24 -33 -12 -47 -11 -111 5 -150 38 -308 34 -453 -11 -57 -18
-59 -18 -126 3 -56 18 -92 22 -222 22 -135 0 -165 -3 -231 -24 -74 -22 -79
-23 -125 -7 -127 41 -337 46 -464 10 -55 -15 -65 -15 -117 -1 -153 41 -340 42
-463 2 -42 -14 -52 -14 -125 5 -119 31 -253 36 -366 16 -52 -10 -107 -23 -124
-30 -24 -10 -40 -9 -95 7 -99 29 -298 29 -406 -2 l-82 -23 -64 20 c-125 39
-332 38 -449 -2 -41 -14 -49 -14 -106 4 -33 10 -89 22 -124 25 -35 3 -77 7
-94 9 -16 2 -64 0 -107 -5z m7072 -1442 c0 -2 -15 -16 -32 -33 l-33 -29 29 33
c28 30 36 37 36 29z m-7535 -27 c10 -11 16 -20 13 -20 -3 0 -13 9 -23 20 -10
11 -16 20 -13 20 3 0 13 -9 23 -20z m7455 -44 c0 -2 -8 -10 -17 -17 -16 -13
-17 -12 -4 4 13 16 21 21 21 13z m237 -82 c-3 -3 -12 -4 -19 -1 -8 3 -5 6 6 6
11 1 17 -2 13 -5z m-40 -10 c-3 -3 -12 -4 -19 -1 -8 3 -5 6 6 6 11 1 17 -2 13
-5z m-64 -11 c-7 -2 -19 -2 -25 0 -7 3 -2 5 12 5 14 0 19 -2 13 -5z"/>
</g>
</svg>
